<svg xmlns="http://www.w3.org/2000/svg" width="31" height="31" viewBox="0 0 31 31">
    <defs>
        <style>
            .cls-1,.cls-4{fill:none}.cls-2{fill:#2e9166}.cls-3{fill:#fcdbd2}.cls-4{stroke:#2e9166;stroke-linecap:round;stroke-linejoin:round;stroke-width:.25px}
        </style>
    </defs>
    <g id="그룹_138" data-name="그룹 138" transform="translate(-.253 .365)">
        <path id="사각형_158" d="M0 0h31v31H0z" class="cls-1" data-name="사각형 158" transform="translate(.253 -.365)"/>
        <g id="그룹_131" data-name="그룹 131" transform="translate(5.538 1.697)">
            <g id="구성_요소_11_15" data-name="구성 요소 11 – 15">
                <g id="그룹_105" data-name="그룹 105">
                    <g id="그룹_103" data-name="그룹 103">
                        <path id="패스_43" d="M446.772 72.924a.531.531 0 0 1-.158.407l-3.881 3.761a.511.511 0 0 1-.51.127l-6.58-1.9a2.333 2.333 0 0 0 .967 2.705 5.333 5.333 0 0 1 2.334 5.3 1.6 1.6 0 0 1 1.594 1.6 1.585 1.585 0 0 1-.33.965 3.843 3.843 0 0 1 2.123 3.337.519.519 0 0 1-.152.377.513.513 0 0 1-.374.158h-17.72a.513.513 0 0 1-.374-.158.518.518 0 0 1-.152-.377 3.848 3.848 0 0 1 2.123-3.337 1.59 1.59 0 0 1 1.092-2.55V70.557a8.772 8.772 0 0 1 8.781-8.742.526.526 0 0 1 .527.527v2.314a2.258 2.258 0 0 1 1.383-.236.526.526 0 0 1 .427.516v2.046a2.556 2.556 0 0 1 2.051.5l6.625 5.061a.517.517 0 0 1 .204.381zm-4.551 3.2l3.22-3.124-6.156-4.7a.476.476 0 0 1-.055-.05c-.014-.011-.535-.48-1.707-.111a.522.522 0 0 1-.468-.078.528.528 0 0 1-.216-.424v-2.155a1.4 1.4 0 0 0-.834.662.525.525 0 0 1-.973-.274v-2.985a7.673 7.673 0 0 0-2.558.629l.851 1.353a.526.526 0 0 1-.166.726.51.51 0 0 1-.277.08.529.529 0 0 1-.446-.247l-.9-1.433a7.778 7.778 0 0 0-1.99 1.743l1.081.7a.526.526 0 0 1-.286.967.514.514 0 0 1-.286-.086l-1.114-.718a7.619 7.619 0 0 0-.959 2.431h1.161a.525.525 0 1 1 0 1.051h-1.292c-.011.158-.025.316-.025.477v1.3h1.317a.527.527 0 0 1 0 1.053h-1.317v1.871h1.317a.525.525 0 1 1 0 1.051h-1.317v7.495h10.054a4.32 4.32 0 0 0-1.818-4.4 3.481 3.481 0 0 1-1.245-4.446.525.525 0 0 1 .635-.31zm-17.546 12.589h16.539a2.8 2.8 0 0 0-2.711-2.181h-11.117a2.8 2.8 0 0 0-2.711 2.181zm14.813-3.786a.554.554 0 0 0-.554-.552h-11.978a.552.552 0 1 0 0 1.1h11.977a.554.554 0 0 0 .554-.549z" class="cls-2" data-name="패스 43" transform="translate(-423.558 -61.815)"/>
                        <path id="패스_44" d="M444.127 153.166h-16.539a2.8 2.8 0 0 1 2.711-2.181h11.118a2.8 2.8 0 0 1 2.71 2.181z" class="cls-3" data-name="패스 44" transform="translate(-426.471 -126.269)"/>
                        <path id="패스_45" d="M446.349 143.205a.552.552 0 1 1 0 1.1h-11.977a.552.552 0 1 1 0-1.1z" class="cls-3" data-name="패스 45" transform="translate(-430.974 -120.645)"/>
                        <path id="패스_46" d="M456.566 75.792l-3.221 3.124-6.769-1.957a.525.525 0 0 0-.635.31 3.481 3.481 0 0 0 1.245 4.446 4.32 4.32 0 0 1 1.818 4.4h-10.056v-7.496h1.317a.525.525 0 1 0 0-1.051h-1.317V75.7h1.317a.527.527 0 1 0 0-1.053h-1.317v-1.3c0-.161.014-.319.025-.477h1.292a.525.525 0 1 0 0-1.051H439.1a7.617 7.617 0 0 1 .959-2.431l1.114.718a.513.513 0 0 0 .285.086.526.526 0 0 0 .286-.967l-1.081-.7a7.778 7.778 0 0 1 1.99-1.743l.9 1.433a.529.529 0 0 0 .446.247.51.51 0 0 0 .277-.08.526.526 0 0 0 .166-.726L443.6 66.3a7.675 7.675 0 0 1 2.558-.629v2.989a.525.525 0 0 0 .973.274 1.4 1.4 0 0 1 .834-.662v2.156a.528.528 0 0 0 .216.424.522.522 0 0 0 .468.078c1.172-.369 1.694.1 1.707.111a.478.478 0 0 0 .055.05z" class="cls-3" data-name="패스 46" transform="translate(-434.682 -64.605)"/>
                    </g>
                    <g id="그룹_104" data-name="그룹 104">
                        <path id="패스_47" d="M446.567 72.539l-6.625-5.061a2.556 2.556 0 0 0-2.051-.5v-2.042a.526.526 0 0 0-.427-.516 2.258 2.258 0 0 0-1.383.236v-2.314a.526.526 0 0 0-.527-.527 8.772 8.772 0 0 0-8.781 8.742v12.784a1.59 1.59 0 0 0-1.092 2.55 3.848 3.848 0 0 0-2.123 3.337.518.518 0 0 0 .152.377.513.513 0 0 0 .374.158H441.8a.513.513 0 0 0 .374-.158.519.519 0 0 0 .152-.377 3.843 3.843 0 0 0-2.123-3.337 1.585 1.585 0 0 0 .33-.965 1.6 1.6 0 0 0-1.594-1.6 5.333 5.333 0 0 0-2.334-5.3 2.333 2.333 0 0 1-.967-2.705l6.58 1.9a.511.511 0 0 0 .51-.127l3.881-3.761a.531.531 0 0 0 .158-.407.517.517 0 0 0-.2-.387z" class="cls-4" data-name="패스 47" transform="translate(-423.558 -61.815)"/>
                        <path id="패스_48" d="M444.127 153.166h-16.539a2.8 2.8 0 0 1 2.711-2.181h11.118a2.8 2.8 0 0 1 2.71 2.181z" class="cls-4" data-name="패스 48" transform="translate(-426.471 -126.269)"/>
                        <path id="패스_49" d="M446.9 143.757a.554.554 0 0 1-.554.552h-11.974a.552.552 0 1 1 0-1.1h11.977a.554.554 0 0 1 .551.548z" class="cls-4" data-name="패스 49" transform="translate(-430.974 -120.645)"/>
                        <path id="패스_50" d="M453.345 78.916l-6.769-1.957a.525.525 0 0 0-.635.31 3.481 3.481 0 0 0 1.245 4.446 4.32 4.32 0 0 1 1.818 4.4h-10.056v-7.496h1.317a.525.525 0 1 0 0-1.051h-1.317V75.7h1.317a.527.527 0 1 0 0-1.053h-1.317v-1.3c0-.161.014-.319.025-.477h1.292a.525.525 0 1 0 0-1.051H439.1a7.617 7.617 0 0 1 .959-2.431l1.114.718a.513.513 0 0 0 .285.086.526.526 0 0 0 .286-.967l-1.081-.7a7.778 7.778 0 0 1 1.99-1.743l.9 1.433a.529.529 0 0 0 .446.247.51.51 0 0 0 .277-.08.526.526 0 0 0 .166-.726L443.6 66.3a7.675 7.675 0 0 1 2.558-.629v2.989a.525.525 0 0 0 .973.274 1.4 1.4 0 0 1 .834-.662v2.156a.528.528 0 0 0 .216.424.522.522 0 0 0 .468.078c1.172-.369 1.694.1 1.707.111a.478.478 0 0 0 .055.05l6.156 4.7z" class="cls-4" data-name="패스 50" transform="translate(-434.682 -64.605)"/>
                    </g>
                </g>
            </g>
        </g>
    </g>
</svg>
