<svg xmlns="http://www.w3.org/2000/svg" width="31" height="31" viewBox="0 0 31 31">
    <defs>
        <style>
            .cls-1,.cls-4{fill:none}.cls-2{fill:#2e9166}.cls-3{fill:#fcdbd2}.cls-4{stroke:#2e9166;stroke-linecap:round;stroke-linejoin:round;stroke-width:.25px}
        </style>
    </defs>
    <g id="그룹_137" data-name="그룹 137" transform="translate(-.253 -.269)">
        <path id="사각형_159" d="M0 0h31v31H0z" class="cls-1" data-name="사각형 159" transform="translate(.253 .269)"/>
        <g id="그룹_132" data-name="그룹 132" transform="translate(9.216 1.697)">
            <g id="구성_요소_12_19" data-name="구성 요소 12 – 19">
                <g id="그룹_107" data-name="그룹 107">
                    <path id="패스_51" d="M392.612 23.183a2.473 2.473 0 0 1 .375 1.934 1.856 1.856 0 0 1-.938 1.224 2.171 2.171 0 0 1-1.013.258 2.352 2.352 0 0 1-1.884-1.032c-1.262-1.834-3.94-2.772-6.4-3.249v11.963a5.409 5.409 0 1 1-10.819 0V17.242a5.409 5.409 0 0 1 10.819 0v.708a21.71 21.71 0 0 1 4.534 1.19 11.45 11.45 0 0 1 5.326 4.043zm-1.1 2.148c.533-.283.461-1.063.158-1.5a10.392 10.392 0 0 0-4.809-3.627 25.163 25.163 0 0 0-8.682-1.459c-.647 0-1.057.025-1.121.033a1.019 1.019 0 0 0-1 1.11.863.863 0 0 0 .971.81 1.889 1.889 0 0 0 .269-.019h.327a29.591 29.591 0 0 1 4.462.363.424.424 0 0 1 .083-.008.584.584 0 0 1 .261.064c2.836.494 6.09 1.554 7.655 3.824a1.226 1.226 0 0 0 .943.538 1 1 0 0 0 .484-.13zm-9.912 8.95V22.123a29.05 29.05 0 0 0-3.973-.308h-.236a3.265 3.265 0 0 1-.361.022 2 2 0 0 1-2.109-1.854 2.14 2.14 0 0 1 1.987-2.345c.161-.019.658-.042 1.268-.042a30.228 30.228 0 0 1 3.424.2v-.555a4.266 4.266 0 0 0-8.532 0v17.04a4.266 4.266 0 1 0 8.532 0z" class="cls-2" data-name="패스 51" transform="translate(-371.929 -11.834)"/>
                    <path id="패스_52" d="M402.424 41.82c.3.438.375 1.218-.158 1.5a1 1 0 0 1-.477.125 1.226 1.226 0 0 1-.943-.538c-1.565-2.27-4.82-3.33-7.655-3.824a.584.584 0 0 0-.261-.064.423.423 0 0 0-.083.008 29.591 29.591 0 0 0-4.462-.363h-.327a1.89 1.89 0 0 1-.269.019.863.863 0 0 1-.971-.81 1.019 1.019 0 0 1 1-1.11 14.17 14.17 0 0 1 1.121-.033 25.163 25.163 0 0 1 8.682 1.459 10.392 10.392 0 0 1 4.803 3.631z" class="cls-3" data-name="패스 52" transform="translate(-382.682 -29.825)"/>
                    <path id="패스_53" d="M384.581 25.1v12.158a4.266 4.266 0 1 1-8.532 0V20.219a4.266 4.266 0 0 1 8.532 0v.555a30.228 30.228 0 0 0-3.424-.2c-.61 0-1.107.022-1.268.042a2.14 2.14 0 0 0-1.987 2.345 2 2 0 0 0 2.109 1.854 3.267 3.267 0 0 0 .361-.022h.236a29.051 29.051 0 0 1 3.973.307zm-3.374 7.669a1.6 1.6 0 1 0-1.784 0v2.445a.892.892 0 1 0 1.784 0z" class="cls-3" data-name="패스 53" transform="translate(-374.906 -14.811)"/>
                    <path id="패스_54" d="M388.855 67.612a1.6 1.6 0 0 1-.7 1.326v2.445a.892.892 0 1 1-1.784 0v-2.444a1.6 1.6 0 1 1 2.489-1.326z" class="cls-2" data-name="패스 54" transform="translate(-381.849 -50.981)"/>
                </g>
                <g id="그룹_108" data-name="그룹 108">
                    <path id="패스_55" d="M385.659 67.612a1.6 1.6 0 0 0 .708 1.326v2.445a.892.892 0 1 0 1.784 0v-2.444a1.6 1.6 0 1 0-2.492-1.326z" class="cls-4" data-name="패스 55" transform="translate(-381.849 -50.981)"/>
                    <path id="패스_56" d="M392.612 23.183a11.45 11.45 0 0 0-5.33-4.043 21.71 21.71 0 0 0-4.534-1.19v-.708a5.409 5.409 0 0 0-10.819 0v17.04a5.409 5.409 0 1 0 10.819 0V22.317c2.464.477 5.142 1.415 6.4 3.249a2.352 2.352 0 0 0 1.884 1.032 2.171 2.171 0 0 0 1.013-.258 1.856 1.856 0 0 0 .938-1.224 2.473 2.473 0 0 0-.371-1.933z" class="cls-4" data-name="패스 56" transform="translate(-371.929 -11.834)"/>
                    <path id="패스_57" d="M384.581 37.258a4.266 4.266 0 1 1-8.532 0V20.219a4.266 4.266 0 0 1 8.532 0v.555a30.228 30.228 0 0 0-3.424-.2c-.61 0-1.107.022-1.268.042a2.14 2.14 0 0 0-1.987 2.345 2 2 0 0 0 2.109 1.854 3.267 3.267 0 0 0 .361-.022h.236a29.051 29.051 0 0 1 3.973.308z" class="cls-4" data-name="패스 57" transform="translate(-374.906 -14.811)"/>
                    <path id="패스_58" d="M402.266 43.321a1 1 0 0 1-.477.125 1.226 1.226 0 0 1-.943-.538c-1.565-2.27-4.82-3.33-7.655-3.824a.584.584 0 0 0-.261-.064.423.423 0 0 0-.083.008 29.591 29.591 0 0 0-4.462-.363h-.327a1.89 1.89 0 0 1-.269.019.863.863 0 0 1-.971-.81 1.019 1.019 0 0 1 1-1.11 14.17 14.17 0 0 1 1.121-.033 25.163 25.163 0 0 1 8.682 1.459 10.392 10.392 0 0 1 4.809 3.627c.297.441.37 1.221-.164 1.504z" class="cls-4" data-name="패스 58" transform="translate(-382.682 -29.825)"/>
                </g>
            </g>
        </g>
    </g>
</svg>
